<svg width="201" height="39" viewBox="0 0 201 39" fill="none" xmlns="http://www.w3.org/2000/svg">
<path d="M14.5771 0.964844L16.3105 0.989258C21.0632 1.10319 24.3672 1.99023 26.2227 3.65039C27.834 5.08268 28.6396 7.23112 28.6396 10.0957C28.6396 11.5443 28.1921 13.0173 27.2969 14.5146C26.418 16.012 25.3031 17.2572 23.9521 18.25C25.9867 18.5755 27.7119 19.5358 29.1279 21.1309C30.5439 22.7096 31.252 24.6953 31.252 27.0879C31.252 34.3958 25.8483 38.0498 15.041 38.0498C12.1439 38.0498 8.7666 37.7812 4.90918 37.2441C4.20931 37.1465 3.75358 36.235 3.54199 34.5098C3.47689 34.0052 3.44434 33.46 3.44434 32.874L3.7373 16.7607C3.7373 10.4131 3.41992 6.75911 2.78516 5.79883C2.47591 5.35938 1.93066 5.1071 1.14941 5.04199C0.921549 4.48861 0.807617 3.91081 0.807617 3.30859C0.807617 2.6901 0.823893 2.30762 0.856445 2.16113V1.99023C2.07715 1.72982 4.014 1.49382 6.66699 1.28223C9.33626 1.07064 11.973 0.964844 14.5771 0.964844ZM10.8906 28.8945L10.8418 30.6035C10.8418 32.5078 11.1755 33.6715 11.8428 34.0947C12.9333 34.2087 13.918 34.2656 14.7969 34.2656C15.6921 34.2656 16.5303 34.2087 17.3115 34.0947C18.109 33.9808 18.8984 33.7692 19.6797 33.46C20.4772 33.1507 21.1527 32.752 21.7061 32.2637C22.943 31.1406 23.5615 29.5212 23.5615 27.4053C23.5615 23.2549 20.6156 21.1797 14.7236 21.1797C13.6006 21.1797 12.3799 21.2529 11.0615 21.3994C11.0615 23.32 11.0046 25.8184 10.8906 28.8945ZM19.6553 17.4443C21.1527 15.2308 21.9014 13.123 21.9014 11.1211C21.9014 9.11914 21.2829 7.55664 20.0459 6.43359C18.8089 5.31055 16.8802 4.74902 14.2598 4.74902C12.9902 4.74902 11.6719 4.87923 10.3047 5.13965C10.679 6.88118 10.8906 8.55762 10.9395 10.1689C10.9883 11.7803 11.0127 13.2614 11.0127 14.6123C11.029 15.9632 11.0452 16.9886 11.0615 17.6885C13.3402 17.4932 15.1143 17.3955 16.3838 17.3955C17.6533 17.3955 18.7438 17.4118 19.6553 17.4443ZM61.4766 3.35742C61.9974 4.02474 62.3555 4.7002 62.5508 5.38379C62.7624 6.06738 63.0309 7.80892 63.3564 10.6084C63.6982 13.3916 64.0482 16.7282 64.4062 20.6182C64.7643 24.5081 65.0573 27.5192 65.2852 29.6514C65.513 31.7835 65.8711 34.2168 66.3594 36.9512C65.1875 37.3255 63.7715 37.5127 62.1113 37.5127C60.4674 37.5127 59.3118 37.3255 58.6445 36.9512C57.9609 34.998 57.4482 31.1325 57.1064 25.3545L47.1455 24.8906C45.6318 33.0286 43.0033 37.3337 39.2598 37.8057C39.097 37.8219 38.9424 37.8301 38.7959 37.8301C37.6566 37.8301 36.6149 37.4883 35.6709 36.8047C34.7269 36.1048 34.2549 35.2666 34.2549 34.29C35.6058 33.3786 36.8509 32.109 37.9902 30.4814C39.1458 28.8538 40.098 27.1123 40.8467 25.2568C41.6117 23.3851 42.2708 21.4076 42.8242 19.3242C43.8333 15.4017 44.3379 11.7559 44.3379 8.38672C44.3379 7.23112 44.1995 6.37663 43.9229 5.82324C43.6462 5.26986 43.0684 4.92806 42.1895 4.79785C41.929 4.47233 41.7988 3.89453 41.7988 3.06445C41.7988 2.23438 41.8314 1.71354 41.8965 1.50195C46.4375 1.74609 52.3376 1.90885 59.5967 1.99023C60.3454 2.2181 60.972 2.67383 61.4766 3.35742ZM56.8379 21.6436C56.7565 19.9183 56.667 17.7454 56.5693 15.125C56.4717 12.5046 56.4066 10.8851 56.374 10.2666C56.3415 9.63184 56.2926 9.03776 56.2275 8.48438C56.1624 7.91471 56.0973 7.50781 56.0322 7.26367C55.9671 7.01953 55.8613 6.7998 55.7148 6.60449C55.5195 6.3278 55.0231 6.14062 54.2256 6.04297C53.4443 5.94531 51.6214 5.89648 48.7568 5.89648C48.7568 8.02865 48.6348 10.6654 48.3906 13.8066C48.1628 16.9479 47.9349 19.4137 47.707 21.2041H48.6348C51.4342 21.2041 54.1686 21.3506 56.8379 21.6436ZM71.1689 30.2129C71.1689 28.3086 72.2594 27.3564 74.4404 27.3564C75.5472 27.3564 76.6377 27.6413 77.7119 28.2109C77.7119 30.278 78.1432 31.8649 79.0059 32.9717C79.8685 34.0622 81.3415 34.6074 83.4248 34.6074C85.5244 34.6074 87.0625 34.2087 88.0391 33.4111C89.0156 32.6136 89.5039 31.3441 89.5039 29.6025C89.5039 27.7471 88.7878 26.1602 87.3555 24.8418C86.1836 23.7513 84.8245 22.8073 83.2783 22.0098C81.7321 21.2122 80.487 20.5612 79.543 20.0566C78.599 19.5358 77.6956 18.9661 76.833 18.3477C75.9867 17.7292 75.2298 17.0618 74.5625 16.3457C73.1302 14.7995 72.4141 12.9521 72.4141 10.8037C72.4141 8.639 72.9756 6.81608 74.0986 5.33496C76.2959 2.43783 79.8685 0.989258 84.8164 0.989258C88.625 0.989258 91.5303 1.77865 93.5322 3.35742C95.3551 4.80599 96.2666 6.41732 96.2666 8.19141C96.2666 9.02148 95.9818 9.70508 95.4121 10.2422C94.8587 10.7793 93.9961 11.0479 92.8242 11.0479C91.6523 11.0479 90.4479 10.7467 89.2109 10.1445C89.2109 10.0306 89.2109 9.9248 89.2109 9.82715C89.2109 8.02051 88.804 6.57194 87.9902 5.48145C87.1927 4.39095 85.9801 3.8457 84.3525 3.8457C82.7249 3.8457 81.431 4.30143 80.4707 5.21289C79.5267 6.12435 79.0547 7.46712 79.0547 9.24121C79.0547 10.7712 79.8034 12.1139 81.3008 13.2695C82.3424 14.0833 83.7096 14.9134 85.4023 15.7598C87.0951 16.6061 88.4297 17.2979 89.4062 17.835C90.3991 18.3558 91.3431 18.9499 92.2383 19.6172C93.1335 20.2682 93.9229 20.9844 94.6064 21.7656C96.1038 23.4583 96.8525 25.4115 96.8525 27.625C96.8525 29.8223 96.2585 31.6859 95.0703 33.2158C93.8822 34.7295 92.2952 35.8851 90.3096 36.6826C88.3239 37.4639 86.3219 37.8545 84.3037 37.8545C82.3018 37.8545 80.609 37.6917 79.2256 37.3662C77.8421 37.057 76.6702 36.6419 75.71 36.1211C74.7497 35.584 73.9196 34.9818 73.2197 34.3145C71.8525 33.0124 71.1689 31.6452 71.1689 30.2129ZM126.613 3.35742C127.134 4.02474 127.492 4.7002 127.688 5.38379C127.899 6.06738 128.168 7.80892 128.493 10.6084C128.835 13.3916 129.185 16.7282 129.543 20.6182C129.901 24.5081 130.194 27.5192 130.422 29.6514C130.65 31.7835 131.008 34.2168 131.496 36.9512C130.324 37.3255 128.908 37.5127 127.248 37.5127C125.604 37.5127 124.449 37.3255 123.781 36.9512C123.098 34.998 122.585 31.1325 122.243 25.3545L112.282 24.8906C110.769 33.0286 108.14 37.3337 104.396 37.8057C104.234 37.8219 104.079 37.8301 103.933 37.8301C102.793 37.8301 101.752 37.4883 100.808 36.8047C99.8636 36.1048 99.3916 35.2666 99.3916 34.29C100.743 33.3786 101.988 32.109 103.127 30.4814C104.283 28.8538 105.235 27.1123 105.983 25.2568C106.748 23.3851 107.408 21.4076 107.961 19.3242C108.97 15.4017 109.475 11.7559 109.475 8.38672C109.475 7.23112 109.336 6.37663 109.06 5.82324C108.783 5.26986 108.205 4.92806 107.326 4.79785C107.066 4.47233 106.936 3.89453 106.936 3.06445C106.936 2.23438 106.968 1.71354 107.033 1.50195C111.574 1.74609 117.474 1.90885 124.733 1.99023C125.482 2.2181 126.109 2.67383 126.613 3.35742ZM121.975 21.6436C121.893 19.9183 121.804 17.7454 121.706 15.125C121.608 12.5046 121.543 10.8851 121.511 10.2666C121.478 9.63184 121.429 9.03776 121.364 8.48438C121.299 7.91471 121.234 7.50781 121.169 7.26367C121.104 7.01953 120.998 6.7998 120.852 6.60449C120.656 6.3278 120.16 6.14062 119.362 6.04297C118.581 5.94531 116.758 5.89648 113.894 5.89648C113.894 8.02865 113.771 10.6654 113.527 13.8066C113.299 16.9479 113.072 19.4137 112.844 21.2041H113.771C116.571 21.2041 119.305 21.3506 121.975 21.6436ZM139.992 29.9932L139.943 9.55859C139.943 7.50781 139.349 6.18945 138.161 5.60352C138.015 5.52214 137.779 5.43262 137.453 5.33496C137.144 5.2373 136.957 5.1722 136.892 5.13965C136.647 4.81413 136.525 4.28516 136.525 3.55273C136.525 2.80404 136.55 2.2832 136.599 1.99023C138.584 1.58333 140.578 1.37988 142.58 1.37988C144.598 1.37988 145.917 1.4043 146.535 1.45312C147.17 1.48568 147.512 1.51823 147.561 1.55078C147.788 1.64844 147.886 1.9821 147.854 2.55176L147.487 12.0488V29.4561C147.487 30.5465 147.528 31.3604 147.609 31.8975C147.691 32.4346 147.87 32.8496 148.146 33.1426C149.237 33.0612 150.881 32.9473 153.078 32.8008C155.275 32.6543 157.001 32.5241 158.254 32.4102L158.596 29.3584C158.807 29.0492 159.198 28.7643 159.768 28.5039C160.337 28.2272 161.045 28.0889 161.892 28.0889C162.754 28.0889 163.422 28.333 163.894 28.8213C164.724 29.6839 165.139 31.5964 165.139 34.5586C165.139 35.8118 164.992 36.6094 164.699 36.9512C163.299 36.9837 157.066 37 145.998 37H141.237C140.912 36.8861 140.619 36.4873 140.358 35.8037C140.114 35.1038 139.992 34.1354 139.992 32.8984V29.9932ZM200.417 7.41016C200.238 8.5332 199.912 9.33887 199.44 9.82715C198.985 10.3154 198.179 10.5596 197.023 10.5596C195.868 10.5596 194.916 10.1364 194.167 9.29004V5.84766C192.263 5.99414 190.09 6.0918 187.648 6.14062V27.21C187.648 30.9535 187.852 34.2168 188.259 37C186.989 37.4232 185.386 37.6348 183.449 37.6348C181.529 37.6348 180.218 37.4232 179.519 37L180.153 29.1387V6.14062L173.22 5.89648V9.29004C173.008 9.59928 172.618 9.89225 172.048 10.1689C171.478 10.4294 170.762 10.5596 169.899 10.5596C169.037 10.5596 168.369 10.3154 167.897 9.82715C167.442 9.33887 167.116 8.54134 166.921 7.43457C166.742 6.3278 166.652 5.18034 166.652 3.99219C166.652 2.78776 166.807 2.02279 167.116 1.69727C171.234 1.89258 176.459 1.99023 182.79 1.99023C189.121 1.99023 194.94 1.89258 200.246 1.69727C200.555 2.02279 200.71 2.77148 200.71 3.94336C200.71 5.11523 200.612 6.27083 200.417 7.41016Z" fill="black"/>
</svg>
